<?xml version="1.0" encoding="utf-8"?>
<!-- Generator: Adobe Illustrator 16.0.0, SVG Export Plug-In . SVG Version: 6.00 Build 0)  -->
<!DOCTYPE svg PUBLIC "-//W3C//DTD SVG 1.1//EN" "http://www.w3.org/Graphics/SVG/1.1/DTD/svg11.dtd">
<svg version="1.1" id="图层_1" xmlns="http://www.w3.org/2000/svg" xmlns:xlink="http://www.w3.org/1999/xlink" x="0px" y="0px"
	 width="38px" height="38px" viewBox="0 0 38 38" enable-background="new 0 0 38 38" xml:space="preserve">
<path fill="#FFFFFF" d="M4,4h30v30H4V4z"/>
<g>
	<path fill="#CFD951" d="M31.037,13H6.975C5.314,13,4,14.2,4,15.908v6.183C4,23.799,5.314,25,6.975,25h24.062
		C32.699,25,34,23.799,34,22.091v-6.183C34,14.2,32.699,13,31.037,13z M31,20.999C31,21.551,30.666,22,30.107,22H7.894
		C7.336,22,7,21.551,7,20.999v-3.998C7,16.449,7.336,16,7.894,16h22.213C30.666,16,31,16.449,31,17.001V20.999z M12.33,9
		c-0.562,0-0.688,0.31-0.284,0.691l2.583,2.432c0.417,0.382,1.058,0.382,1.475-0.001l2.582-2.43C19.091,9.311,18.963,9,18.402,9
		H12.33z M14.307,9h2.255C15.366-1,0,0.11,0,0.11v1.886C2,1.997,12.739,2,14.307,9z M34,30.891c0-0.553,0.574-0.664,0.945-0.248
		l2.664,2.834c0.371,0.416,0.438,1.096,0.066,1.512l-2.77,2.841c-0.368,0.409-0.91,0.302-0.91-0.25L34,30.891z"/>
	<path fill="#CFD951" d="M34,32.781v2.576C19,35.357,17.699,23,17.699,23h2.81C20.509,25,23,32.781,34,32.781z"/>
</g>
<path fill="#CFD951" d="M29.083,7.934c-0.711,0.946-1.656,1.42-2.84,1.42c-1.892,0-3.431-1.42-3.431-3.433h1.183l-1.892-1.773
	l-1.776,1.773h1.184c0,2.604,2.13,4.853,4.732,4.853c1.54,0,2.84-0.71,3.787-1.894l-0.472-0.355L29.083,7.934z M30.977,5.921
	c0-2.602-2.129-4.85-4.733-4.85c-1.539,0-2.959,0.71-3.787,1.893l0.946,0.947c0.593-0.83,1.658-1.42,2.841-1.42
	c1.895,0,3.431,1.535,3.432,3.43h-1.067l1.776,1.776l1.775-1.776H30.977z"/>
<path fill="#CFD951" d="M14.556,27.307h-0.622v1.035c0,1.304-0.604,2.48-1.643,3.117c1.038,0.635,1.643,1.801,1.643,3.106v0.825
	h0.622c0.211,0,0.407,0.148,0.407,0.43c0.006,0.216-0.167,0.396-0.383,0.401c-0.001,0-0.001,0-0.002,0H6.438
	c-0.217-0.005-0.389-0.185-0.385-0.401c0-0.223,0.151-0.43,0.414-0.43h0.622v-0.825c0-1.306,0.646-2.472,1.683-3.106
	c-1.036-0.637-1.683-1.81-1.683-3.117v-1.035H6.467c-0.214,0-0.409-0.207-0.409-0.428c0-0.223,0.195-0.403,0.409-0.403h8.115
	c0.214,0,0.388,0.194,0.388,0.418C14.97,27.112,14.768,27.307,14.556,27.307z M13.104,27.307H7.919v1.035
	c0,1.289,0.684,2.412,1.885,2.726c0.05,0.016,0.094,0.036,0.134,0.067l0,0c0.004,0.002,0.006,0.008,0.011,0.008
	c0.001,0.002,0.005,0.004,0.007,0.004c0,0.003,0.001,0.006,0.003,0.006c0.063,0.054,0.105,0.127,0.126,0.206
	c0.021,0.089,0.014,0.18-0.021,0.263l-0.008,0.016l-0.002,0.004c0,0.003,0,0.007-0.003,0.01l-0.006,0.01l-0.001,0.006
	c-0.006,0.012-0.013,0.021-0.021,0.03l-0.01,0.017v0.002c-0.005,0.002-0.007,0.01-0.011,0.012c0,0,0,0.003-0.003,0.004l-0.01,0.012
	H9.989l-0.012,0.017c-0.01,0.008-0.019,0.015-0.03,0.023v0.003c-0.005,0.001-0.009,0.006-0.013,0.011H9.931
	c-0.04,0.029-0.087,0.05-0.137,0.06c-1.189,0.321-1.867,1.43-1.867,2.713v0.828h5.187v-0.828c0-1.288-0.689-2.402-1.887-2.717
	c-0.007-0.002-0.012-0.004-0.018-0.006l-0.008-0.002l-0.009-0.001c-0.002-0.004-0.005-0.005-0.01-0.007h-0.005
	c-0.047-0.021-0.09-0.05-0.127-0.087l-0.002-0.001l-0.008-0.012c-0.001,0-0.003,0-0.005-0.004c-0.002-0.003-0.003-0.006-0.005-0.008
	l-0.008-0.008l-0.003-0.004c-0.003-0.006-0.005-0.01-0.013-0.016c-0.012-0.021-0.024-0.041-0.034-0.064h-0.002
	c-0.003-0.006-0.003-0.012-0.008-0.019v-0.003l-0.007-0.018v-0.003c0-0.007-0.002-0.011-0.006-0.017v-0.001
	c0-0.007-0.002-0.013-0.004-0.021l-0.003-0.015c-0.003,0-0.003-0.003-0.003-0.003l-0.001-0.02l-0.001-0.002l-0.001-0.018v0.002
	c-0.022-0.195,0.1-0.378,0.288-0.432c1.199-0.313,1.887-1.438,1.887-2.725v-1.035H13.104z M11.058,30.464
	c-0.219,0.06-0.412,0.19-0.546,0.374c-0.042-0.057-0.088-0.108-0.142-0.155l-0.028-0.024l-0.021-0.019l-0.024-0.019
	c-0.101-0.074-0.215-0.127-0.336-0.157c-0.621-0.165-1.082-0.644-1.29-1.295h3.687C12.143,29.822,11.682,30.302,11.058,30.464z
	 M10.308,32.8l0.037-0.03l0.005-0.003l0.022-0.02l0.003-0.004c0.017-0.015,0.033-0.028,0.047-0.046l0.021-0.021l0.026-0.03
	l0.027-0.037l0.011-0.015l0.057,0.086l0.026,0.013l0.007,0.007c0.079,0.083,0.174,0.146,0.279,0.188
	c0.005,0,0.028,0.011,0.028,0.011c0.012,0.003,0.026,0.007,0.042,0.013c0.692,0.195,1.12,0.771,1.12,1.686v0.176H8.954v-0.176
	c0-0.908,0.417-1.479,1.101-1.684c0.085-0.02,0.163-0.055,0.234-0.104L10.308,32.8z"/>
</svg>
