<svg xmlns="http://www.w3.org/2000/svg" width="100" height="100" viewBox="0 0 100 100"><path fill="#64BD63" d="M100 94c0 3.313-2.688 6-6 6H6c-3.313 0-6-2.688-6-6V6a6 6 0 0 1 6-6h88a6 6 0 0 1 6 6v88z"/><path fill="#FFF" d="M74.462 52.931H52.93v21.53a2.039 2.039 0 0 1-2.038 2.039h-1.785a2.04 2.04 0 0 1-2.039-2.038v-21.53h-21.53a2.04 2.04 0 0 1-2.038-2.04v-1.785c0-1.126.913-2.038 2.038-2.038h21.53V25.538a2.04 2.04 0 0 1 2.04-2.038h1.785c1.125 0 2.038.913 2.038 2.038v21.531h21.53c1.126 0 2.039.912 2.039 2.038v1.785a2.04 2.04 0 0 1-2.038 2.04z"/></svg>