<svg xmlns="http://www.w3.org/2000/svg" width="100" height="100" viewBox="0 0 100 100"><path fill="#5d8fc2" d="M100 94a6 6 0 0 1-6 6H6a6 6 0 0 1-6-6V6a6 6 0 0 1 6-6h88a6 6 0 0 1 6 6v88z"/><path fill="#FFF" d="M80.502 34.818c.114-10.346-5.05-10.053-14.328-10.016.034-3.478.381-7.607-1.46-9.1-1.506-1.222-4.676-.919-7.292-.919h-15.27c-3.08 0-5.78-.156-7.293 1.472-1.55 1.667-1.325 5.069-1.288 8.454-9.415-.1-14.257-.146-14.07 10.018 1.573.028 3.146.062 4.719.091v33.448c0 6.27-.432 11.807 2.83 14.521 4.296 3.572 19.113 2.206 26.94 2.206 6.345 0 14.99 1.035 18.703-1.93 3.302-2.635 2.833-8.114 2.833-14.336V34.818h4.976zM33.915 78.651c-2.53-.651-1.63-7.256-1.63-10.568V34.634h4.976v34.092c0 3.758 1.22 11.098-3.346 9.925zm16.302 0c-3.89.365-2.833-6.402-2.83-10.2V34.634h5.06v33.542c0 3.736 1.084 10.163-2.23 10.475zM61.54 24.893H38.205v-5.054H61.54v5.054zm4.119 53.573c-4.038.558-2.918-6.345-2.918-10.108V34.634h5.062V67.99c0 3.758 1.09 10.031-2.144 10.476z"/></svg>