<?xml version="1.0" encoding="utf-8"?>
<!-- Generator: Adobe Illustrator 16.0.0, SVG Export Plug-In . SVG Version: 6.00 Build 0)  -->
<!DOCTYPE svg PUBLIC "-//W3C//DTD SVG 1.1//EN" "http://www.w3.org/Graphics/SVG/1.1/DTD/svg11.dtd">
<svg version="1.1" id="图层_1" xmlns="http://www.w3.org/2000/svg" xmlns:xlink="http://www.w3.org/1999/xlink" x="0px" y="0px"
	 width="38px" height="38px" viewBox="0 0 38 38" enable-background="new 0 0 38 38" xml:space="preserve">
<path fill="#FFFFFF" d="M4,4h30v30H4V4z"/>
<path fill="#D3EB00" d="M34,22.091C34,23.799,32.699,25,31.037,25H6.975C5.314,25,4,23.799,4,22.091v-6.183
	C4,14.2,5.314,13,6.975,13h24.062C32.699,13,34,14.2,34,15.908V22.091z"/>
<path fill="#FFFFFF" d="M31,20.999C31,21.551,30.666,22,30.107,22H7.894C7.336,22,7,21.551,7,20.999v-3.998
	C7,16.449,7.336,16,7.894,16h22.213C30.666,16,31,16.449,31,17.001V20.999z"/>
<path fill="#D3EB00" d="M12.33,9c-0.562,0-0.688,0.31-0.284,0.691l2.583,2.432c0.417,0.382,1.058,0.382,1.475-0.001l2.582-2.43
	C19.091,9.311,18.963,9,18.402,9H12.33z M14.307,9h2.255C15.366-1,0,0.11,0,0.11v1.886C2,1.997,12.739,2,14.307,9z M34,30.891
	c0-0.553,0.574-0.664,0.945-0.248l2.664,2.834c0.371,0.416,0.438,1.096,0.066,1.512l-2.77,2.841c-0.368,0.409-0.91,0.302-0.91-0.25
	L34,30.891z"/>
<path fill="#D3EB00" d="M34,32.781v2.576C19,35.357,17.699,23,17.699,23h2.81C20.509,25,23,32.781,34,32.781z M28.916,7.975
	c-0.71,0.947-1.656,1.42-2.839,1.42c-1.892,0-3.433-1.42-3.433-3.432h1.185L21.936,4.19L20.16,5.963h1.184
	c0,2.604,2.131,4.852,4.733,4.852c1.538,0,2.839-0.71,3.787-1.893l-0.474-0.355L28.916,7.975z M30.811,5.963
	c0-2.603-2.131-4.85-4.733-4.85c-1.539,0-2.959,0.71-3.788,1.892l0.948,0.947c0.592-0.828,1.657-1.42,2.84-1.42
	c1.895,0.001,3.431,1.537,3.432,3.431h-1.067l1.776,1.776l1.775-1.776H30.811z"/>
</svg>
