<svg xmlns="http://www.w3.org/2000/svg" width="38" height="38" viewBox="0 0 38 38"><path fill="#FFF" d="M4 4h30v30H4z"/><path fill="#D3EB00" d="M34 22.091C34 23.799 32.699 25 31.037 25H6.975C5.314 25 4 23.799 4 22.091v-6.183C4 14.2 5.314 13 6.975 13h24.062C32.699 13 34 14.2 34 15.908v6.183z"/><path fill="#FFF" d="M31 20.999c0 .552-.334 1.001-.893 1.001H7.894C7.336 22 7 21.551 7 20.999v-3.998c0-.552.336-1.001.894-1.001h22.213c.559 0 .893.449.893 1.001v3.998z"/><path fill="#D3EB00" d="M12.33 9c-.562 0-.688.31-.284.691l2.583 2.432a1.091 1.091 0 0 0 1.475-.001l2.582-2.43c.405-.381.277-.692-.284-.692H12.33zm1.977 0h2.255C15.366-1 0 .11 0 .11v1.886C2 1.997 12.739 2 14.307 9zM34 30.891c0-.553.574-.664.945-.248l2.664 2.834c.371.416.438 1.096.067 1.512l-2.77 2.84c-.368.41-.91.302-.91-.25L34 30.891z"/><path fill="#D3EB00" d="M34 32.781v2.576C19 35.357 17.699 23 17.699 23h2.81c0 2 2.491 9.781 13.491 9.781zM28.916 7.975c-.71.947-1.656 1.42-2.839 1.42-1.892 0-3.432-1.42-3.432-3.432h1.184L21.936 4.19 20.16 5.963h1.184c0 2.604 2.13 4.852 4.733 4.852 1.538 0 2.839-.71 3.787-1.893l-.473-.355-.475-.592zm1.894-2.012c0-2.603-2.13-4.85-4.733-4.85-1.539 0-2.959.71-3.788 1.892l.948.947c.592-.828 1.657-1.42 2.84-1.42a3.434 3.434 0 0 1 3.432 3.431h-1.067l1.776 1.776 1.775-1.776H30.81z"/></svg>