<svg xmlns="http://www.w3.org/2000/svg" xmlns:xlink="http://www.w3.org/1999/xlink" width="45" height="52" viewBox="0 0 45 52"><path fill="#87AF25" d="M45 39L22.5 52 0 39V13L22.5 0 45 13z"/><path fill="#D1DE4D" d="M42.045 37.293L22.5 48.586 2.955 37.293V14.707L22.5 3.415l19.545 11.292z"/><text transform="translate(31 23.44)" fill="#54711E" font-family="'AdobeHeitiStd-Regular-GBpc-EUC-H'" font-size="3.454">end</text><path fill="#54711E" d="M33.956 24.596a.669.669 0 0 1-.668.669h-4.922a.669.669 0 0 1-.668-.669v-4.925c0-.37.299-.668.668-.668h4.922c.369 0 .668.3.668.668v4.925z"/><path fill="#54711E" d="M29.979 34.009a11.168 11.168 0 0 1-6.021 3.734 11.18 11.18 0 0 1-8.499-1.355 11.18 11.18 0 0 1-5.054-6.968c-1.442-6.03 2.293-12.11 8.32-13.553a11.266 11.266 0 0 1 7.537.827.803.803 0 1 1-.703 1.443 9.641 9.641 0 0 0-6.459-.708c-5.166 1.234-8.367 6.446-7.131 11.616a9.579 9.579 0 0 0 4.331 5.973 9.58 9.58 0 0 0 7.285 1.159c4.037-.964 6.873-4.352 7.334-8.251.063-.531.337-.824.868-.853s.813.26.746.904a11.202 11.202 0 0 1-1.607 4.708c-.286.468-.604.911-.947 1.324z"/><defs><text id="a" transform="translate(30.959 23.398)" font-family="'AdobeHeitiStd-Regular-GBpc-EUC-H'" font-size="3.454">end</text></defs><clipPath id="b"><use xlink:href="#a" overflow="visible"/></clipPath><path clip-path="url(#b)" fill="#D1DE4D" d="M33.914 24.554a.669.669 0 0 1-.668.669h-4.922a.669.669 0 0 1-.668-.669v-4.925c0-.37.299-.668.668-.668h4.922c.369 0 .668.3.668.668v4.925z"/><text transform="matrix(1.2162 0 0 1 15.626 32.977)" fill="#54711E" font-family="'AdobeHeitiStd-Regular-GBpc-EUC-H'" font-size="15.607">R</text></svg>