<svg xmlns="http://www.w3.org/2000/svg" xmlns:xlink="http://www.w3.org/1999/xlink" width="45" height="52" viewBox="0 0 45 52"><path fill="#87AF25" d="M45 39L22.5 52 0 39V13L22.5 0 45 13z"/><path fill="#D1DE4D" d="M42.045 37.293L22.5 48.586 2.955 37.293V14.707L22.5 3.415l19.545 11.292z"/><text transform="translate(31 23.44)" fill="#54711E" font-family="'AdobeHeitiStd-Regular-GBpc-EUC-H'" font-size="3.454">end</text><path fill="#54711E" d="M33.956 24.596a.669.669 0 0 1-.668.669h-4.922a.669.669 0 0 1-.668-.669v-4.925c0-.37.299-.668.668-.668h4.922c.369 0 .668.3.668.668v4.925z"/><g fill="#54711E"><path d="M29.979 34.009a11.168 11.168 0 0 1-6.021 3.734 11.18 11.18 0 0 1-8.499-1.355 11.18 11.18 0 0 1-5.054-6.968c-1.442-6.03 2.293-12.11 8.32-13.553a11.266 11.266 0 0 1 7.537.827.803.803 0 1 1-.703 1.443 9.641 9.641 0 0 0-6.459-.708c-5.166 1.234-8.367 6.446-7.131 11.616a9.579 9.579 0 0 0 4.331 5.973 9.58 9.58 0 0 0 7.285 1.159c4.037-.964 6.873-4.352 7.334-8.251.063-.531.337-.824.868-.853s.813.26.746.904a11.202 11.202 0 0 1-1.607 4.708c-.286.468-.604.911-.947 1.324z"/><path d="M26.503 21.54h-.79v1.315c0 1.655-.766 3.143-2.082 3.951 1.317.805 2.082 2.281 2.082 3.938v1.052h.79c.268 0 .517.187.517.542a.5.5 0 0 1-.488.51H16.208a.499.499 0 0 1-.487-.51c0-.282.19-.542.525-.542h.789v-1.052c0-1.656.818-3.133 2.133-3.938-1.315-.808-2.133-2.293-2.133-3.951v-1.314h-.789c-.27 0-.519-.262-.519-.544 0-.281.249-.509.519-.509h10.293c.27 0 .488.245.488.525a.545.545 0 0 1-.524.527zm-1.842 0h-6.574v1.315c0 1.634.867 3.058 2.388 3.457a.459.459 0 0 1 .171.084l.011.009a.035.035 0 0 1 .009.007.513.513 0 0 1 .161.268.521.521 0 0 1-.026.33l-.001.003-.008.016c-.001.002-.001.005-.003.007l-.005.013c-.002.004-.004.009-.008.013a.014.014 0 0 0-.002.006l-.025.04-.013.019-.001.003-.013.017-.002.004a.108.108 0 0 0-.013.015l-.002.001-.015.018a.337.337 0 0 1-.036.03l-.002.002-.017.014h-.002a.453.453 0 0 1-.174.076c-1.512.405-2.369 1.812-2.369 3.439v1.053h6.575v-1.053c0-1.634-.873-3.046-2.394-3.443-.007-.002-.016-.004-.022-.007-.003 0-.005 0-.008-.002-.004-.003-.009-.003-.012-.005l-.013-.006h-.006a.483.483 0 0 1-.161-.111l-.002-.002-.011-.013c-.002 0-.004-.002-.006-.006a.024.024 0 0 1-.008-.009l-.009-.01-.005-.006c-.004-.006-.007-.012-.013-.018a.573.573 0 0 1-.046-.084h-.002c-.002-.006-.004-.015-.008-.021l-.001-.002a.13.13 0 0 1-.007-.021l-.002-.004a.09.09 0 0 0-.006-.02v-.003l-.006-.023-.004-.019c-.002-.001-.002-.004-.002-.005-.002-.006-.002-.013-.002-.021l-.002-.004-.002-.022v-.002a.508.508 0 0 1 .366-.547c1.521-.4 2.395-1.822 2.395-3.455V21.54h-.005zm-2.595 4.008a1.27 1.27 0 0 0-.693.47 1.312 1.312 0 0 0-.179-.194l-.034-.029-.028-.024-.031-.022a1.275 1.275 0 0 0-.424-.202c-.788-.206-1.373-.814-1.639-1.641h4.675c-.27.826-.856 1.435-1.647 1.642zm-.951 2.958l.046-.038.006-.003.029-.024.004-.004c.021-.021.042-.038.06-.059l.026-.027.035-.04.035-.046.013-.019.073.11.032.017.01.01a1.012 1.012 0 0 0 .391.249l.053.017c.88.247 1.419.978 1.419 2.136v.225H19.4v-.225c0-1.151.529-1.876 1.396-2.132a.888.888 0 0 0 .297-.133l.022-.014z"/></g><defs><text id="a" transform="translate(30.959 23.398)" font-family="'AdobeHeitiStd-Regular-GBpc-EUC-H'" font-size="3.454">end</text></defs><clipPath id="b"><use xlink:href="#a" overflow="visible"/></clipPath><path clip-path="url(#b)" fill="#D1DE4D" d="M33.914 24.554a.669.669 0 0 1-.668.669h-4.922a.669.669 0 0 1-.668-.669v-4.925c0-.37.299-.668.668-.668h4.922c.369 0 .668.3.668.668v4.925z"/></svg>