<svg xmlns="http://www.w3.org/2000/svg" width="45" height="52" viewBox="0 0 45 52"><path fill="#D1DE4D" d="M45.001 39L22.5 52 0 39V13L22.5 0l22.501 13z"/><path fill="#87AF25" d="M19.952 20.154c.424 0 .834-.059 1.227-.158l-1.722-1.416a2.893 2.893 0 0 1-1.052-1.96 2.904 2.904 0 0 1 .643-2.133 2.903 2.903 0 0 1 4.088-.41l1.83 1.501c.015-.157.025-.315.025-.477 0-2.788-2.256-5.053-5.037-5.053a5.047 5.047 0 0 0-5.04 5.053 5.043 5.043 0 0 0 5.038 5.053zm11.432-2.203c-.99 0-1.928.23-2.768.63a6.424 6.424 0 0 0-1.459.95l-5.074-4.165a1.224 1.224 0 0 0-.788-.283 1.247 1.247 0 0 0-.787 2.21l5.112 4.198a6.419 6.419 0 0 0-.588 1.669 6.558 6.558 0 0 0-.113.964l3.068-1.702a3.727 3.727 0 0 1 5.076 1.46 3.755 3.755 0 0 1-1.459 5.088l-2.681 1.488c.76.31 1.59.483 2.46.483 3.58 0 6.48-2.908 6.48-6.496.001-3.586-2.9-6.494-6.48-6.494zm.226 6.737a2.07 2.07 0 0 0-2.816-.814L21.97 27.66a8.552 8.552 0 0 0-1.302-1.175 8.46 8.46 0 0 0-5.014-1.645c-4.706 0-8.519 3.822-8.519 8.544 0 4.72 3.814 8.542 8.519 8.542 4.71 0 8.524-3.825 8.524-8.542 0-.098-.012-.19-.016-.284a8.54 8.54 0 0 0-.241-1.767l6.88-3.822a2.078 2.078 0 0 0 .81-2.823zM15.666 40.502c-3.92 0-7.098-3.188-7.098-7.117s3.178-7.113 7.098-7.113c3.919 0 7.099 3.185 7.099 7.113 0 3.93-3.18 7.117-7.099 7.117z"/><path fill="#D1DE4D" d="M15.753 35.012l-1.635-1.637h1.091v-2.182h1.088v2.182h1.09z"/><path d="M5.319 57.359zm-.376 8.78a.439.439 0 1 0 .874.081.442.442 0 0 0-.396-.479.442.442 0 0 0-.478.398zm-1.721-7.984a.807.807 0 0 0 1.068.396.803.803 0 1 0-.671-1.46.798.798 0 0 0-.397 1.064zm4.067 7.795a.36.36 0 0 0 .484.181.363.363 0 0 0 .18-.482.367.367 0 0 0-.485-.182.364.364 0 0 0-.179.483zm-5.508-6.075a.73.73 0 1 0 .844-1.194.733.733 0 0 0-1.02.174.733.733 0 0 0 .176 1.02zm7.417 4.71c.13.092.314.062.408-.069a.294.294 0 0 0-.48-.338.294.294 0 0 0 .072.407zM.761 61.342a.66.66 0 0 0 .594.719.662.662 0 0 0 .718-.596.662.662 0 0 0-.596-.719.664.664 0 0 0-.716.596zm9.175.855a.218.218 0 0 0 .198.238c.12.01.228-.08.238-.199a.217.217 0 0 0-.198-.238.22.22 0 0 0-.238.199zm-8.669 1.692a.586.586 0 0 0 1.064-.487.59.59 0 0 0-.778-.288.58.58 0 0 0-.286.775zm8.809-3.111c.032.073.12.106.194.071a.147.147 0 0 0 .072-.193c-.034-.074-.122-.105-.196-.074a.15.15 0 0 0-.07.196zm-7.12 5.033a.512.512 0 0 0 .592-.838.514.514 0 0 0-.592.838zm1.899-4.527c-.054.084.078.479.078.479s.258.857.304 1.04c.048.18.124.34.158.489.03-.162.996-3.047.996-3.047h.45s1.02 2.903 1.047 3.047a12.47 12.47 0 0 1 .252-1.022l.55-1.928c.004-.023.012-.049.02-.081s.016-.06.022-.093l.018-.084a.423.423 0 0 0 .006-.065c0-.108-.034-.186-.102-.233-.068-.049-.172-.072-.31-.072h-.146v-.262h1.523v.262h-.117c-.062 0-.114.006-.16.018s-.086.037-.124.07a.503.503 0 0 0-.1.146c-.03.063-.062.147-.092.25l-1.056 3.71h-.561l-1.018-2.743-.954 2.743h-.576l-.766-2.356a.76.76 0 0 0-.07-.162.312.312 0 0 0-.088-.101.349.349 0 0 0-.124-.054 1.773 1.773 0 0 0-.158-.012l-.006-.262h1.432v.262c.008.002-.273-.021-.328.061z" fill="#006C37"/><path d="M18.013 28.105a1.016 1.016 0 1 0-.819 1.86 1.016 1.016 0 0 0 .819-1.86zm-4.281 9.772a.508.508 0 1 0-.406.93.508.508 0 0 0 .406-.93zm6.679-7.754a.93.93 0 1 0-.197 1.303.935.935 0 0 0 .197-1.303zm-8.597 6.328a.426.426 0 0 0-.594-.088.42.42 0 0 0-.088.59.42.42 0 0 0 .59.09.425.425 0 0 0 .092-.592zm9.644-3.414a.847.847 0 1 0-1.685.187.847.847 0 0 0 1.685-.187zm-.932 1.992a.761.761 0 1 0-.612 1.395.761.761 0 0 0 .612-1.395zm-1.4 2.353a.678.678 0 1 0-1.092.803.678.678 0 0 0 1.092-.803zm-2.411 1.291a.592.592 0 1 0-.524.654.593.593 0 0 0 .524-.654z" fill="#87AF25"/><text transform="matrix(1.2162 0 0 1 11.467 36.48)" fill="#54711E" font-family="'AdobeHeitiStd-Regular-GBpc-EUC-H'" font-size="8.476">R</text></svg>