<svg xmlns="http://www.w3.org/2000/svg" width="45" height="52" viewBox="0 0 45 52"><path fill="#87AF25" d="M45 39L22.5 52 0 39V13L22.5 0 45 13z"/><path fill="#D1DE4D" d="M42.045 37.293L22.5 48.586 2.955 37.293V14.707L22.5 3.415l19.545 11.292z"/><path d="M22.467 15.657a1.87 1.87 0 1 0 .993 3.608 1.872 1.872 0 0 0-.993-3.608zm5.225 18.936a.934.934 0 0 0-.651 1.154.935.935 0 1 0 1.803-.501.938.938 0 0 0-1.152-.653zm.546-18.835a1.714 1.714 0 1 0-.861 3.319 1.717 1.717 0 0 0 2.091-1.227 1.718 1.718 0 0 0-1.23-2.092zm-4.943 19.023a.786.786 0 0 0-.95.563.777.777 0 0 0 .558.947.775.775 0 0 0 .949-.557.785.785 0 0 0-.557-.953zm9.821-16.073zM19.324 32.695a.626.626 0 0 0-.881.889.626.626 0 0 0 .881-.889zm14.773-10.059a1.405 1.405 0 0 0 .748 2.706 1.404 1.404 0 0 0-.748-2.706zM16.312 28.52a.463.463 0 0 0-.326.573.463.463 0 0 0 .573.326.465.465 0 0 0 .328-.574.465.465 0 0 0-.575-.325zm18.514-.895a1.248 1.248 0 1 0-.627 2.416 1.248 1.248 0 0 0 .627-2.416zM15.842 25.54a.317.317 0 0 0-.383.223.315.315 0 0 0 .223.381.311.311 0 0 0 .381-.223.31.31 0 0 0-.221-.381zm17.037 6.729a1.092 1.092 0 1 0 .012 1.543 1.091 1.091 0 0 0-.012-1.543z" fill="#87AF25"/><text transform="matrix(1.2162 0 0 1 7.251 30.914)" fill="#54711E" font-family="'AdobeHeitiStd-Regular-GBpc-EUC-H'" font-size="15.607">R</text><text transform="translate(18.5 29.564)" fill="#54711E" font-family="'AdobeHeitiStd-Regular-GBpc-EUC-H'" font-size="3.454">UNNING</text></svg>