<svg xmlns="http://www.w3.org/2000/svg" xmlns:xlink="http://www.w3.org/1999/xlink" width="45" height="52" viewBox="0 0 45 52"><path fill="#87AF25" d="M45 39L22.5 52 0 39V13L22.5 0 45 13z"/><path fill="#D1DE4D" d="M42.045 37.293L22.5 48.586 2.955 37.293V14.707L22.5 3.415l19.545 11.292z"/><text transform="translate(31.691 23.563)" fill="#54711E" font-family="'AdobeHeitiStd-Regular-GBpc-EUC-H'" font-size="3.967">start</text><g fill="#54711E"><path d="M30.929 35.077a12.824 12.824 0 0 1-6.914 4.289 12.842 12.842 0 0 1-9.76-1.556c-2.94-1.806-5-4.649-5.804-8.003-1.656-6.925 2.633-13.907 9.555-15.564a12.941 12.941 0 0 1 8.654.949.923.923 0 0 1 .426 1.234.923.923 0 0 1-1.232.424 11.07 11.07 0 0 0-7.417-.813c-5.933 1.417-9.609 7.402-8.19 13.339a10.997 10.997 0 0 0 4.974 6.858 11.01 11.01 0 0 0 8.366 1.333c4.636-1.108 7.893-4.999 8.422-9.477.073-.61.387-.946.997-.98.61-.032.933.3.856 1.039a12.858 12.858 0 0 1-1.846 5.407 12.718 12.718 0 0 1-1.087 1.521z"/><path d="M26.938 20.758h-.908v1.51c0 1.901-.879 3.609-2.391 4.538 1.513.924 2.391 2.618 2.391 4.521v1.208h.907c.309 0 .594.214.594.622a.575.575 0 0 1-.561.586H15.115a.573.573 0 0 1-.56-.586c0-.322.218-.622.603-.622h.906v-1.208c0-1.902.939-3.598 2.449-4.521-1.51-.929-2.449-2.634-2.449-4.538V20.76h-.906c-.31 0-.596-.301-.596-.625 0-.323.286-.585.596-.585h11.82c.311 0 .562.282.562.604a.626.626 0 0 1-.602.604zm-2.116 0h-7.55v1.51c0 1.876.996 3.512 2.743 3.97a.547.547 0 0 1 .196.096c.004.004.008.008.013.01a.03.03 0 0 1 .01.009.587.587 0 0 1 .185.306.605.605 0 0 1-.03.38l-.001.004c-.002.005-.004.012-.009.019l-.003.008a.077.077 0 0 1-.006.015c-.002.004-.004.011-.009.016l-.002.007-.028.045c-.004.006-.01.016-.016.021l-.001.004a.079.079 0 0 1-.015.019l-.003.005-.014.018-.002.002c-.007.006-.012.014-.018.021-.014.012-.026.024-.041.034-.002 0-.002.001-.003.002-.005.005-.012.012-.02.016h-.002a.508.508 0 0 1-.2.088c-1.736.465-2.72 2.081-2.72 3.949v1.209h7.551V31.33c0-1.877-1.003-3.497-2.75-3.954-.008-.002-.019-.004-.025-.008-.003 0-.005 0-.009-.002-.004-.004-.011-.004-.014-.006l-.015-.007h-.006a.542.542 0 0 1-.186-.128l-.002-.002a.331.331 0 0 1-.012-.016c-.002 0-.004-.002-.007-.007-.004-.002-.006-.005-.01-.009-.003-.002-.006-.009-.01-.013l-.006-.007c-.004-.007-.008-.015-.015-.021a.609.609 0 0 1-.053-.097h-.002c-.003-.007-.005-.016-.01-.023l-.001-.003-.008-.023c0-.002 0-.002-.003-.004a.068.068 0 0 0-.007-.023v-.004a.342.342 0 0 0-.007-.027.191.191 0 0 1-.004-.021c-.002-.001-.002-.006-.002-.006-.002-.007-.002-.016-.002-.024l-.002-.005-.002-.024v-.002a.584.584 0 0 1 .42-.629c1.747-.459 2.75-2.093 2.75-3.968v-1.51h-.005zm-2.98 4.603a1.462 1.462 0 0 0-.796.54 1.446 1.446 0 0 0-.206-.223l-.039-.033-.032-.027-.035-.025a1.467 1.467 0 0 0-.487-.232c-.905-.237-1.577-.935-1.882-1.885h5.368c-.309.948-.983 1.647-1.891 1.885zm-1.092 3.397s.051-.04.053-.043l.006-.004.034-.027.004-.004c.024-.025.048-.045.069-.068l.03-.03.041-.048.04-.051.015-.023.083.126.037.021.011.011a1.191 1.191 0 0 0 .449.286c.02.006.04.015.061.02 1.011.284 1.631 1.123 1.631 2.453v.258H18.78v-.258c0-1.32.607-2.154 1.604-2.449a.98.98 0 0 0 .341-.152l.025-.018z"/></g><path fill="#54711E" d="M35.341 21.26l-5.002-3.637a.6.6 0 0 0-.626-.048.6.6 0 0 0-.329.536v7.272a.604.604 0 0 0 .956.487l5.001-3.636a.6.6 0 0 0 0-.974z"/><defs><path id="a" d="M35.375 21.25l-5.002-3.637a.6.6 0 1 0-.955.488v7.271a.602.602 0 0 0 .955.487l5.001-3.636a.598.598 0 0 0 .001-.973z"/></defs><clipPath id="b"><use xlink:href="#a" overflow="visible"/></clipPath><g clip-path="url(#b)"><text transform="translate(31.695 23.584)" fill="#D1DE4D" font-family="'AdobeHeitiStd-Regular-GBpc-EUC-H'" font-size="3.967">start</text></g></svg>