<svg xmlns="http://www.w3.org/2000/svg" width="45" height="52" viewBox="0 0 45 52"><path fill="#ADD04E" d="M45.001 39L22.5 52 0 39V13L22.5 0l22.501 13z"/><path fill="#FFF" d="M19.952 20.15a4.98 4.98 0 0 0 1.227-.157l-1.722-1.416a2.894 2.894 0 0 1-1.052-1.96 2.904 2.904 0 0 1 .643-2.133 2.901 2.901 0 0 1 4.088-.41l1.83 1.501c.016-.157.025-.315.025-.477 0-2.788-2.255-5.053-5.037-5.053a5.046 5.046 0 0 0-5.039 5.053 5.043 5.043 0 0 0 5.037 5.053zm11.432-2.202c-.99 0-1.928.23-2.768.63a6.417 6.417 0 0 0-1.459.95l-5.074-4.165a1.227 1.227 0 0 0-.788-.283 1.248 1.248 0 0 0-.787 2.21l5.112 4.198a6.436 6.436 0 0 0-.588 1.669 6.564 6.564 0 0 0-.113.965l3.068-1.703a3.726 3.726 0 0 1 5.076 1.46 3.755 3.755 0 0 1-1.459 5.088l-2.681 1.488c.76.31 1.59.484 2.46.484 3.58 0 6.48-2.908 6.48-6.496.001-3.587-2.9-6.495-6.48-6.495zm.226 6.737a2.07 2.07 0 0 0-2.816-.813l-6.825 3.785a8.575 8.575 0 0 0-1.302-1.174 8.458 8.458 0 0 0-5.014-1.646c-4.706 0-8.518 3.822-8.518 8.545 0 4.72 3.814 8.54 8.518 8.54 4.71 0 8.525-3.824 8.525-8.54 0-.098-.012-.19-.016-.283a8.557 8.557 0 0 0-.241-1.768l6.88-3.822a2.08 2.08 0 0 0 .81-2.824zM15.666 40.498c-3.92 0-7.098-3.187-7.098-7.117s3.178-7.111 7.098-7.111c3.919 0 7.098 3.183 7.098 7.111 0 3.93-3.178 7.117-7.098 7.117z"/><path fill="#FFF" d="M18.75 30.559h-.494v.823c0 1.036-.48 1.971-1.306 2.478.826.504 1.306 1.43 1.306 2.468v.656h.494c.168 0 .324.118.324.341a.312.312 0 0 1-.306.319h-6.47a.313.313 0 0 1-.306-.319c0-.176.12-.341.329-.341h.495v-.656c0-1.038.513-1.964 1.337-2.468-.824-.507-1.337-1.439-1.337-2.478v-.823h-.495c-.169 0-.325-.165-.325-.341s.156-.319.325-.319h6.451c.169 0 .307.154.307.331 0 .175-.16.329-.329.329zm-1.154 0h-4.12v.823c0 1.024.543 1.917 1.497 2.166.04.012.075.028.107.053v.001c.003.002.004.005.008.005.001.002.004.004.006.004 0 .003.001.004.002.004a.333.333 0 0 1 .1.165.334.334 0 0 1-.017.208l-.006.012-.002.004a.014.014 0 0 1-.002.007l-.005.009-.001.004a.111.111 0 0 1-.016.024l-.007.013v.002c-.004.002-.006.007-.009.009 0 0 0 .002-.002.003l-.008.009h-.001l-.01.013c-.007.006-.014.013-.023.019v.002c-.004.001-.007.005-.011.009h-.002a.284.284 0 0 1-.108.047c-.946.255-1.484 1.137-1.484 2.156v.659h4.121v-.659c0-1.024-.547-1.909-1.499-2.159a.058.058 0 0 1-.014-.005l-.006-.001-.007-.001c-.002-.003-.004-.004-.008-.005h-.003a.317.317 0 0 1-.101-.069l-.002-.001-.006-.009c-.001 0-.003-.001-.004-.004a.022.022 0 0 1-.004-.005l-.006-.007-.003-.003c-.002-.004-.004-.009-.009-.012a.505.505 0 0 1-.028-.052h-.002c-.001-.004-.002-.009-.005-.014v-.003l-.006-.013v-.003a.022.022 0 0 0-.004-.013v-.001a.075.075 0 0 0-.004-.016l-.002-.012c-.002 0-.002-.002-.002-.002l-.001-.015-.001-.002-.001-.014v.001a.32.32 0 0 1 .229-.343c.953-.249 1.5-1.143 1.5-2.165v-.823h-.008zm-1.626 2.51a.793.793 0 0 0-.434.296.814.814 0 0 0-.112-.123l-.022-.019-.017-.015-.02-.014a.754.754 0 0 0-.267-.126c-.493-.13-.86-.512-1.025-1.029h2.93c-.171.519-.537.901-1.033 1.03zm-.596 1.856l.029-.025.004-.001.018-.016.003-.003c.013-.012.026-.022.037-.036l.017-.017.021-.025.022-.028.008-.013.045.069.02.011.006.005a.623.623 0 0 0 .222.149c.004 0 .023.009.023.009.01.003.021.005.033.01.55.155.89.613.89 1.339v.14h-2.475v-.14c0-.721.332-1.176.875-1.337a.58.58 0 0 0 .187-.083l.015-.008z"/></svg>