<svg xmlns="http://www.w3.org/2000/svg" width="45" height="52" viewBox="0 0 45 52"><path fill="#D1DE4D" d="M45.001 39L22.5 52 0 39V13L22.5 0l22.501 13z"/><path fill="#FFF" d="M19.952 20.154c.424 0 .834-.059 1.227-.158l-1.722-1.416a2.893 2.893 0 0 1-1.052-1.96 2.904 2.904 0 0 1 .643-2.133 2.903 2.903 0 0 1 4.088-.41l1.83 1.501c.015-.157.025-.315.025-.477 0-2.788-2.256-5.053-5.037-5.053a5.047 5.047 0 0 0-5.04 5.053 5.043 5.043 0 0 0 5.038 5.053zm11.432-2.203c-.99 0-1.928.23-2.768.63a6.424 6.424 0 0 0-1.459.95l-5.074-4.165a1.224 1.224 0 0 0-.788-.283 1.247 1.247 0 0 0-.787 2.21l5.112 4.198a6.419 6.419 0 0 0-.588 1.669 6.558 6.558 0 0 0-.113.964l3.068-1.702a3.727 3.727 0 0 1 5.076 1.46 3.755 3.755 0 0 1-1.459 5.088l-2.681 1.488c.76.31 1.59.483 2.46.483 3.58 0 6.48-2.908 6.48-6.496.001-3.586-2.9-6.494-6.48-6.494zm.226 6.737a2.07 2.07 0 0 0-2.816-.814L21.97 27.66a8.552 8.552 0 0 0-1.302-1.175 8.46 8.46 0 0 0-5.014-1.645c-4.706 0-8.519 3.822-8.519 8.544 0 4.72 3.814 8.542 8.519 8.542 4.71 0 8.524-3.825 8.524-8.542 0-.098-.012-.19-.016-.284a8.54 8.54 0 0 0-.241-1.767l6.88-3.822a2.078 2.078 0 0 0 .81-2.823zM15.666 40.502c-3.92 0-7.098-3.188-7.098-7.117s3.178-7.113 7.098-7.113c3.919 0 7.099 3.185 7.099 7.113 0 3.93-3.18 7.117-7.099 7.117z"/><path fill="#D1DE4D" d="M15.753 35.012l-1.635-1.637h1.091v-2.182h1.088v2.182h1.09z"/><path d="M18.013 28.106zm-4.281 9.771a.508.508 0 1 0-.406.93.508.508 0 0 0 .406-.93zm6.679-7.754a.932.932 0 1 0-.197 1.303.935.935 0 0 0 .197-1.303zm-8.597 6.328a.426.426 0 0 0-.594-.088.42.42 0 0 0-.088.59.424.424 0 0 0 .682-.502zm9.644-3.414a.847.847 0 1 0-1.685.187.847.847 0 0 0 1.685-.187zm-.932 1.992a.761.761 0 1 0 .393 1.002.76.76 0 0 0-.393-1.002zm-1.4 2.353a.678.678 0 1 0-1.092.803.678.678 0 0 0 1.092-.803zm-2.411 1.291a.593.593 0 0 0-1.179.132.593.593 0 1 0 1.179-.132z" fill="#FFF"/><text transform="matrix(1.2162 0 0 1 11.467 36.48)" fill="#FFF" font-family="'AdobeHeitiStd-Regular-GBpc-EUC-H'" font-size="8.476">R</text></svg>