<svg xmlns="http://www.w3.org/2000/svg" width="45" height="52" viewBox="0 0 45 52"><path fill="#ADD04E" d="M45.001 39L22.5 52 0 39V13L22.5 0l22.501 13z"/><path fill="#54711E" d="M19.952 20.15a4.98 4.98 0 0 0 1.227-.159l-1.722-1.415a2.894 2.894 0 0 1-1.052-1.96 2.904 2.904 0 0 1 .643-2.133 2.901 2.901 0 0 1 4.088-.41l1.83 1.501a4.69 4.69 0 0 0 .025-.478c0-2.787-2.255-5.052-5.037-5.052a5.046 5.046 0 0 0-5.039 5.052 5.043 5.043 0 0 0 5.037 5.054zm11.432-2.203c-.99 0-1.928.23-2.768.63a6.417 6.417 0 0 0-1.459.95l-5.074-4.165a1.227 1.227 0 0 0-.788-.283 1.248 1.248 0 0 0-.787 2.21l5.112 4.198a6.436 6.436 0 0 0-.588 1.669 6.564 6.564 0 0 0-.113.964l3.068-1.702a3.726 3.726 0 0 1 5.076 1.46 3.755 3.755 0 0 1-1.459 5.088l-2.681 1.488c.76.31 1.59.484 2.46.484 3.58 0 6.48-2.908 6.48-6.497.001-3.587-2.9-6.494-6.48-6.494zm.226 6.737a2.07 2.07 0 0 0-2.816-.814l-6.825 3.785a8.57 8.57 0 0 0-1.302-1.173 8.458 8.458 0 0 0-5.014-1.646c-4.706 0-8.518 3.82-8.518 8.545 0 4.72 3.814 8.54 8.518 8.54 4.71 0 8.525-3.825 8.525-8.54 0-.098-.012-.19-.016-.284a8.55 8.55 0 0 0-.241-1.767l6.88-3.823a2.078 2.078 0 0 0 .81-2.823zM15.666 40.497c-3.92 0-7.098-3.188-7.098-7.118s3.178-7.111 7.098-7.111c3.919 0 7.098 3.184 7.098 7.111 0 3.93-3.178 7.118-7.098 7.118z"/><path fill="#54711E" d="M18.751 30.557h-.494v.824c0 1.036-.479 1.972-1.306 2.478.827.505 1.306 1.43 1.306 2.468v.658h.494c.168 0 .324.118.324.341a.311.311 0 0 1-.307.318h-6.47c-.17 0-.307-.143-.307-.318s.119-.341.329-.341h.495v-.658c0-1.038.512-1.966 1.337-2.468-.824-.507-1.337-1.438-1.337-2.478v-.824h-.495c-.169 0-.325-.165-.325-.341 0-.175.156-.318.325-.318h6.451c.17 0 .307.154.307.331a.337.337 0 0 1-.327.328zm-1.155 0h-4.12v.824c0 1.025.544 1.918 1.496 2.167.04.012.075.027.107.053v.001c.003.002.004.005.008.005.001.002.005.004.006.004 0 .004.001.004.002.004a.331.331 0 0 1 .081.374.027.027 0 0 1-.006.012l-.001.005-.003.007-.004.009-.001.005a.073.073 0 0 1-.016.023c-.001.004-.005.008-.007.013v.002l-.009.01-.001.002c-.002.005-.004.006-.008.011h-.002l-.009.013a.08.08 0 0 1-.023.018v.003c-.003.002-.007.004-.012.01h-.001a.262.262 0 0 1-.109.047c-.947.255-1.485 1.136-1.485 2.156v.659h4.119v-.659c0-1.024-.547-1.909-1.499-2.161a.033.033 0 0 1-.014-.004h-.006c-.002-.003-.004-.003-.007-.003l-.008-.004h-.004a.309.309 0 0 1-.101-.07l-.001-.001c-.002-.003-.003-.006-.006-.008-.001 0-.002-.001-.003-.006l-.005-.005c-.002 0-.003-.004-.005-.007-.001-.002-.001-.002-.003-.002a.038.038 0 0 0-.009-.013L15.899 34h-.001a.057.057 0 0 0-.004-.014v-.006a.052.052 0 0 0-.006-.013v-.004c0-.005-.001-.007-.004-.013v-.001l-.003-.016c0-.003 0-.008-.002-.012l-.001-.003-.001-.014-.001-.003-.001-.014v-.003a.318.318 0 0 1 .229-.343c.953-.25 1.5-1.143 1.5-2.165v-.825h-.005v.006zm-1.626 2.512a.793.793 0 0 0-.434.296.922.922 0 0 0-.112-.123l-.022-.019-.016-.015-.02-.015a.778.778 0 0 0-.267-.125c-.492-.129-.86-.513-1.025-1.028h2.93c-.171.517-.538.9-1.034 1.029zm-.597 1.856l.029-.025h.003l.019-.016.002-.002.038-.037.017-.018.021-.025.022-.027.009-.013.045.069.02.012.006.005a.617.617 0 0 0 .223.149c.003 0 .023.009.023.009a.594.594 0 0 1 .033.01c.55.157.89.613.89 1.34v.142h-2.474v-.142c0-.722.332-1.176.875-1.337a.652.652 0 0 0 .187-.084l.012-.01z"/></svg>