<svg xmlns="http://www.w3.org/2000/svg" width="100" height="100" viewBox="0 0 100 100"><path fill="#CE9E41" d="M100 94c0 3.313-2.688 6-6 6H6c-3.313 0-6-2.688-6-6V6a6 6 0 0 1 6-6h88a6 6 0 0 1 6 6v88z"/><path fill="#FFF" d="M82.43 57.499l-21.412 7.718c-.526.192-1.062.183-1.595.225l-3.229-9.089 1.804-.651c.557 1.753 2.377 2.679 4.067 2.07l15.29-5.513c1.692-.61 2.608-2.521 2.05-4.275L75.377 35.3c-.555-1.752-2.377-2.677-4.066-2.07l-15.29 5.512c-1.69.609-2.608 2.522-2.051 4.274l-2.223.8-3.132-8.83a6.482 6.482 0 0 1 2.331-1.486l21.407-7.715c3.38-1.216 7.02.636 8.134 4.138l6.045 19.031c1.114 3.5-.724 7.327-4.102 8.545zM51.167 16.793l2.676 1.396-5.934 9.519-2.676-1.395 5.934-9.52zM38.896 58.981c-1.116-1.419-.918-3.506.44-4.662l4.152-3.533 4.208 4.988-4.316 3.675c-1.36 1.161-3.366.95-4.484-.468zM62.1 47.155c.558 1.751-.362 3.666-2.05 4.274l-4.966 1.79-2.225-6.267 5.178-1.867c1.685-.61 3.509.317 4.063 2.07zm-22.323 2.5c-1.115-1.415-3.124-1.625-4.482-.466L22.988 59.668c-1.362 1.158-1.557 3.243-.44 4.66l8.086 10.262c1.114 1.422 3.122 1.63 4.482.471l12.305-10.477c1.36-1.157 1.557-3.243.44-4.662l1.943-1.658 5.862 6.95c-.39.9-.957 1.736-1.745 2.406L36.694 82.289c-2.715 2.317-6.734 1.9-8.963-.938l-12.125-15.4c-2.233-2.83-3.711-4.117-.996-6.43l19.102-17.56c.483-.412 1.041-.634 1.589-.876l6.081 7.205-1.605 1.366zM20.87 36.58l13.26-2.663.614 3.252-13.265 2.665-.609-3.254zm13.56-18.598l2.727-1.767 1.801 12.112-2.732 1.765-1.797-12.11z"/></svg>