<svg xmlns="http://www.w3.org/2000/svg" id="图层_1" width="100" height="100" viewBox="0 0 100 100"><defs id="defs4160"><style id="style3344">@font-face{font-family:ifont;src:url(http://at.alicdn.com/t/font_1442373896_4754455.eot?#iefix) format(&amp;quot;embedded-opentype&amp;quot;),url(http://at.alicdn.com/t/font_1442373896_4754455.woff) format(&amp;quot;woff&amp;quot;),url(http://at.alicdn.com/t/font_1442373896_4754455.ttf) format(&amp;quot;truetype&amp;quot;),url(http://at.alicdn.com/t/font_1442373896_4754455.svg#ifont) format(&amp;quot;svg&amp;quot;)}</style><style id="style4159"/></defs><path fill="#5d8fc2" d="M100 94c0 3.313-2.688 6-6 6H6c-3.313 0-6-2.688-6-6V6a6 6 0 0 1 6-6h88a6 6 0 0 1 6 6v88z" id="path4150"/><g id="g4170" transform="translate(12.956 12.967) scale(.07341)" fill="navy"><path id="path4161" d="M964.843 885.93L829.035 750.166c59.178-75.946 94.805-171.093 94.805-274.602 0-247.04-200.981-448-448-448-247.04 0-448 200.96-448 448 0 247.018 200.96 448 448 448 103.36 0 198.4-35.52 274.261-94.571l135.83 135.83c21.93 21.909 57.365 22.015 79.146.255 21.782-21.802 21.654-57.194-.234-79.146zm-851.67-410.367c0-199.979 162.688-362.667 362.667-362.667 199.979 0 362.667 162.688 362.667 362.667 0 199.978-162.688 362.666-362.667 362.666-199.979 0-362.667-162.688-362.667-362.666z"/><path id="path4163" d="M626.795 432.896H518.507v-108.31c0-22.655-19.115-41.023-42.667-41.023-23.573 0-42.667 18.346-42.667 41.024v108.309H324.864c-22.656 0-41.024 19.115-41.024 42.688 0 23.573 18.347 42.667 41.024 42.667h108.31v108.288c0 22.656 19.093 41.045 42.666 41.045 23.552 0 42.667-18.368 42.667-41.045V518.25h108.288c22.656 0 41.045-19.094 41.045-42.667s-18.39-42.688-41.045-42.688z"/></g></svg>