<svg xmlns="http://www.w3.org/2000/svg" id="图层_1" width="100" height="100" viewBox="0 0 100 100"><defs id="defs4160"><style id="style3344">@font-face{font-family:ifont;src:url(http://at.alicdn.com/t/font_1442373896_4754455.eot?#iefix) format(&amp;quot;embedded-opentype&amp;quot;),url(http://at.alicdn.com/t/font_1442373896_4754455.woff) format(&amp;quot;woff&amp;quot;),url(http://at.alicdn.com/t/font_1442373896_4754455.ttf) format(&amp;quot;truetype&amp;quot;),url(http://at.alicdn.com/t/font_1442373896_4754455.svg#ifont) format(&amp;quot;svg&amp;quot;)}</style><style id="style4207"/></defs><path fill="#5d8fc2" d="M100 94c0 3.313-2.688 6-6 6H6c-3.313 0-6-2.688-6-6V6a6 6 0 0 1 6-6h88a6 6 0 0 1 6 6v88z" id="path4150"/><g id="g4279" transform="translate(-.968 1.395)" fill="navy"><g transform="translate(15.155 13.825) scale(.07042)" id="g4218"><path d="M426.24 425.088H308.544a49.216 49.216 0 1 0 0 98.368h333.76a49.184 49.184 0 1 0 0-98.368H524.672" id="path4209"/></g><path d="M84.73 76.589l-9.972-9.973c4.349-5.55 6.973-12.523 6.973-20.097 0-18.147-14.772-32.919-32.844-32.919-18.147 0-32.919 14.772-32.919 32.92 0 18.07 14.772 32.843 32.92 32.843 7.573 0 14.546-2.624 20.095-6.973l9.974 9.973a4.052 4.052 0 0 0 5.774.075c1.65-1.65 1.65-4.2 0-5.85zm-62.463-30.07c0-14.697 11.923-26.62 26.62-26.62 14.622 0 26.62 11.923 26.62 26.62 0 14.623-11.998 26.62-26.62 26.62-14.697 0-26.62-11.997-26.62-26.62z" id="path4249"/></g></svg>